<?xml version="1.0" encoding="UTF-8"?>
<svg version="1.1" xmlns="http://www.w3.org/2000/svg" width="500" height="500">
<path d="M0 0 C0.80147461 0.12358887 1.60294922 0.24717773 2.42871094 0.37451172 C44.08234505 7.00086115 82.82394307 25.07634523 113.7421875 53.8984375 C115.30273154 55.35098541 116.89374165 56.77123501 118.5078125 58.1640625 C124.77791814 63.5904842 129.87585315 69.49975718 135 76 C136.47869494 77.75039861 137.95786473 79.50039619 139.4375 81.25 C173.78650755 123.31855802 189.33853266 180.09858201 184.25 233.875 C179.23061446 280.56397908 161.0137357 324.10923398 129.01953125 358.79296875 C127.26095093 360.71482152 125.59180225 362.67647489 123.9375 364.6875 C121.33328146 367.73634121 118.49993236 370.34125743 115.44140625 372.9296875 C113.57019703 374.51647292 111.73170228 376.12396216 109.90234375 377.7578125 C67.44165367 415.39203565 10.69065258 432.6579531 -45.51513672 429.87548828 C-94.5548789 426.69425734 -141.52993023 406.17279171 -177.24609375 372.54296875 C-179.18388732 370.75360192 -181.11227184 369.0610855 -183.1484375 367.39453125 C-185.40089954 365.50308025 -187.29755826 363.7294219 -189.1875 361.5 C-190.06535156 360.46552734 -190.06535156 360.46552734 -190.9609375 359.41015625 C-191.97027344 358.21712891 -191.97027344 358.21712891 -193 357 C-193.83789062 356.04996094 -194.67578125 355.09992188 -195.5390625 354.12109375 C-232.61624607 311.81244474 -249.76652766 255.09948242 -246.86376953 199.38525391 C-243.38653482 150.39860166 -223.2152203 103.51513057 -189.54296875 67.75390625 C-187.75473728 65.81734222 -186.06365644 63.89049156 -184.3984375 61.85546875 C-181.25352853 58.1112856 -177.73179746 55.1399431 -174 52 C-173.13503906 51.2471875 -172.27007812 50.494375 -171.37890625 49.71875 C-159.24619914 39.31458325 -146.08669092 30.54257159 -132 23 C-131.10474609 22.51152588 -131.10474609 22.51152588 -130.19140625 22.01318359 C-91.16595293 0.86064534 -43.80698155 -6.93849141 0 0 Z " fill="#020202" transform="translate(281,36)"/>
<path d="M0 0 C8.96509611 2.97691569 18.40958658 3.8501661 27.75 5 C26.94301067 10.76997368 24.29838458 14.41490129 19.75 18 C16.70766321 18.90643315 13.91311551 19.11476156 10.75 19 C11.17759929 21.35634505 11.61675308 23.70957721 12.0625 26.0625 C12.23942383 27.04766602 12.23942383 27.04766602 12.41992188 28.05273438 C13.08290045 31.50362287 13.91719107 34.5946646 15.35546875 37.80859375 C16.75 41 16.75 41 16.75 44 C14.75 45 14.75 45 6.75 45 C6.09 50.61 5.43 56.22 4.75 62 C-0.2 62 -5.15 62 -10.25 62 C-9.26 65.465 -9.26 65.465 -8.25 69 C-7.42886719 69.32355469 -6.60773438 69.64710938 -5.76171875 69.98046875 C-4.93285156 70.31691406 -4.10398438 70.65335937 -3.25 71 C-2.23343689 73.54601455 -1.60120398 75.66366522 -1.0625 78.3125 C-0.91103516 78.95767578 -0.75957031 79.60285156 -0.60351562 80.26757812 C0.86701455 86.78171392 1.77395045 93.3979102 2.75 100 C2.92587646 101.166521 3.10175293 102.33304199 3.28295898 103.53491211 C3.82225589 107.12622275 4.34970842 110.71911648 4.875 114.3125 C5.05675781 115.52228516 5.23851562 116.73207031 5.42578125 117.97851562 C6.30909205 124.05210755 6.97874271 129.86207055 6.75 136 C18.0524491 136.8342861 18.0524491 136.8342861 28.1015625 132.70703125 C30.76107495 130.00302799 30.76107495 130.00302799 33 127.15234375 C33.5775 126.44207031 34.155 125.73179687 34.75 125 C35.41 125 36.07 125 36.75 125 C36.75 126.65 36.75 128.3 36.75 130 C41.04 129.67 45.33 129.34 49.75 129 C48.60336366 135.87981804 46.6460174 139.14170686 41.078125 143.2265625 C33.85219219 147.56875148 26.55225267 149.45057366 18.25 150.1875 C17.42757812 150.26935547 16.60515625 150.35121094 15.7578125 150.43554688 C13.75614225 150.63338638 11.75318047 150.81808724 9.75 151 C10.08 154.96 10.41 158.92 10.75 163 C1.125 161.25 1.125 161.25 -2.25 159 C-2.4375 156.375 -2.4375 156.375 -2.25 154 C-5.22 154.33 -8.19 154.66 -11.25 155 C-11.25 157.97 -11.25 160.94 -11.25 164 C-4.32 166.475 -4.32 166.475 2.75 169 C2.75 169.66 2.75 170.32 2.75 171 C4.668125 171.37125 4.668125 171.37125 6.625 171.75 C11.93860132 172.93998226 16.75500193 174.86225152 21.75 177 C22.92820312 177.49113281 24.10640625 177.98226562 25.3203125 178.48828125 C30.66059116 180.73140676 35.80056728 182.96918827 40.75 186 C40.27332082 197.89848756 38.7401181 209.39685094 36.75 221.125 C34.51697787 234.12612313 34.51697787 234.12612313 33.1875 247.2421875 C32.71601703 254.52491551 31.71452738 261.76604462 30.75 269 C52.035 268.505 52.035 268.505 73.75 268 C73.75 211.9 73.75 155.8 73.75 98 C61.87 97.67 49.99 97.34 37.75 97 C39.99902845 91.37742888 39.99902845 91.37742888 42.76171875 88.51171875 C43.35106201 87.89208252 43.94040527 87.27244629 44.54760742 86.6340332 C45.17127197 85.99167725 45.79493652 85.34932129 46.4375 84.6875 C47.71961364 83.34196824 49.0008747 81.99562353 50.28125 80.6484375 C50.8896875 80.01131836 51.498125 79.37419922 52.125 78.71777344 C54.49794609 76.20935266 56.75226466 73.6088084 59.00390625 70.9921875 C61.24838507 68.43137274 63.5633053 65.93739843 65.875 63.4375 C70.73385481 58.1790432 75.43383553 52.79455608 80.07080078 47.33959961 C83.29622 43.57319847 86.6656071 40.02815007 90.19677734 36.54711914 C91.94458384 34.80618079 93.58393273 32.9992994 95.1875 31.125 C97.83050998 28.06151116 100.49706066 25.02200756 103.1875 22 C103.86683594 21.236875 104.54617188 20.47375 105.24609375 19.6875 C105.74238281 19.130625 106.23867188 18.57375 106.75 18 C110.7918309 18.51771767 112.34556751 20.41121817 114.9375 23.4375 C115.72511719 24.34371094 116.51273437 25.24992187 117.32421875 26.18359375 C118.12472656 27.11300781 118.92523438 28.04242188 119.75 29 C121.24558597 30.67062874 122.74549275 32.33740092 124.25 34 C126.47829114 36.47502234 128.7057884 38.95071754 130.9296875 41.4296875 C134.991786 45.95437373 139.07577936 50.45786587 143.1875 54.9375 C158.91770179 72.07522771 158.91770179 72.07522771 165.75 80 C166.25789063 80.57878906 166.76578125 81.15757812 167.2890625 81.75390625 C170.75 85.76588687 170.75 85.76588687 170.75 88 C171.61625 88.37125 171.61625 88.37125 172.5 88.75 C175.09908658 90.19393699 176.82836838 91.73521987 178.75 94 C178.75 94.99 178.75 95.98 178.75 97 C166.87 97.33 154.99 97.66 142.75 98 C142.42 154.1 142.09 210.2 141.75 268 C130.53 268 119.31 268 107.75 268 C107.75 279.88 107.75 291.76 107.75 304 C83.99 304.495 83.99 304.495 59.75 305 C59.42 320.84 59.09 336.68 58.75 353 C2.98 353 -52.79 353 -110.25 353 C-110.25 337.49 -110.25 321.98 -110.25 306 C-99.36 305.505 -99.36 305.505 -88.25 305 C-87.8478125 302.5559375 -87.8478125 302.5559375 -87.4375 300.0625 C-87.04324381 297.70806869 -86.64722604 295.35393207 -86.25 293 C-86.1375293 292.33097656 -86.02505859 291.66195313 -85.90917969 290.97265625 C-84.69062851 283.76205591 -83.44746537 276.60208249 -81.6875 269.5 C-79.81909412 261.76086616 -79.05485473 253.90651413 -78.25 246 C-78.96800781 245.92523438 -79.68601562 245.85046875 -80.42578125 245.7734375 C-93.99425908 244.04991977 -106.79861486 239.63381283 -119.28515625 234.15234375 C-122.77198183 232.79712169 -126.31574608 231.84685813 -129.9375 230.9375 C-135.74600776 229.4734214 -140.87949699 227.63814183 -146.25 225 C-145.64303802 219.56590506 -144.34214149 214.72323476 -142.5625 209.5625 C-142.29920898 208.78261719 -142.03591797 208.00273437 -141.76464844 207.19921875 C-139.9634511 201.91741587 -138.01031169 196.7050367 -136 191.5 C-133.78078991 185.75238012 -132.10236033 180.113481 -131.25 174 C-125.51736274 174.52114884 -120.51755593 176.18937245 -115.1171875 178.16015625 C-111.94821203 179.23425363 -111.94821203 179.23425363 -107.25 179 C-105.93 175.04 -104.61 171.08 -103.25 167 C-99.55808984 167.61531836 -95.9106494 168.24633689 -92.25 169 C-92.06824219 167.94941406 -91.88648438 166.89882812 -91.69921875 165.81640625 C-91.44566344 164.3983747 -91.19173711 162.98040946 -90.9375 161.5625 C-90.81955078 160.87478516 -90.70160156 160.18707031 -90.58007812 159.47851562 C-89.77577318 155.04452683 -88.59431012 150.93169073 -87.11352539 146.6809082 C-86.04326062 143.35815519 -85.17226467 139.99300171 -84.3046875 136.61328125 C-76.99325758 108.46381831 -76.99325758 108.46381831 -68.25 98 C-66.11949534 95.32943718 -65.1601941 93.7440532 -64 90.4375 C-62.33927217 85.72032626 -59.71186578 81.77006415 -56.96875 77.61328125 C-55.8012963 75.83822096 -54.69820684 74.01948519 -53.65625 72.16796875 C-53.1921875 71.45253906 -52.728125 70.73710937 -52.25 70 C-51.59 70 -50.93 70 -50.25 70 C-49.981875 69.113125 -49.71375 68.22625 -49.4375 67.3125 C-48.25 64 -48.25 64 -46.5625 61.8125 C-43.89912956 56.10527764 -45.80413906 49.75437498 -47.21875 43.83203125 C-49.33458293 34.92431727 -50.64959053 26.49510252 -50.6875 17.3125 C-50.7021228 15.95064575 -50.7021228 15.95064575 -50.71704102 14.5612793 C-50.6365022 8.2151731 -49.9657854 1.90308094 -45.4375 -2.9375 C-32.61625493 -9.16496189 -12.94347275 -4.35356134 0 0 Z " fill="#F9FAFB" transform="translate(244.25,62)"/>
<path d="M0 0 C4.88877374 -0.08655889 8.40523313 0.34466677 13 2 C15.05445643 2.37977115 17.11816991 2.7120932 19.1875 3 C23.55233854 3.63643455 27.9055822 4.29783715 32.25 5.0625 C33.58804688 5.29646484 33.58804688 5.29646484 34.953125 5.53515625 C37 6 37 6 38 7 C37.95778636 8.457635 37.83438027 9.91285193 37.68359375 11.36328125 C37.58288574 12.36053223 37.48217773 13.3577832 37.37841797 14.38525391 C37.25354004 15.57812012 37.12866211 16.77098633 37 18 C36.85610573 19.44571862 36.71309246 20.89152511 36.57080078 22.33740234 C36.1660785 26.43460866 35.74831168 30.53036239 35.32543945 34.62573242 C35.14961945 36.33871229 34.97613038 38.05193296 34.80493164 39.76538086 C34.55392758 42.27518222 34.29531358 44.78410163 34.03515625 47.29296875 C33.92410301 48.42607735 33.92410301 48.42607735 33.81080627 49.58207703 C33.73410202 50.30675674 33.65739777 51.03143646 33.57836914 51.77807617 C33.514767 52.40219894 33.45116486 53.02632172 33.38563538 53.6693573 C32.80870437 57.1561226 31.85716296 60.57134818 31 64 C25.06 64 19.12 64 13 64 C13.01160156 66.65933594 13.02320313 69.31867188 13.03515625 72.05859375 C13.04294652 74.62345256 13.04902345 77.18831007 13.05493164 79.75317383 C13.05997218 81.54094021 13.06680454 83.32870245 13.07543945 85.11645508 C13.0875173 87.68051168 13.09323094 90.24451397 13.09765625 92.80859375 C13.10281754 93.6127623 13.10797882 94.41693085 13.11329651 95.24546814 C13.11349215 97.16401715 13.06201983 99.08245368 13 101 C11.05136075 102.94863925 8.1019128 102.1291874 5.50878906 102.13894653 C4.59838867 102.1369223 3.68798828 102.13489807 2.75 102.1328125 C1.82155273 102.13376923 0.89310547 102.13472595 -0.06347656 102.13571167 C-2.03059965 102.13639355 -3.99772496 102.13453872 -5.96484375 102.13037109 C-8.98703026 102.12502295 -12.00906815 102.13031582 -15.03125 102.13671875 C-16.93750033 102.13605797 -18.84375057 102.13477681 -20.75 102.1328125 C-22.11560059 102.13584885 -22.11560059 102.13584885 -23.50878906 102.13894653 C-29.88505031 102.11494969 -29.88505031 102.11494969 -31 101 C-30.984375 99.21484375 -30.984375 99.21484375 -30.75 96.9375 C-30.68296875 96.20402344 -30.6159375 95.47054687 -30.546875 94.71484375 C-29.9667024 91.8347012 -28.99185844 89.23667368 -27.92724609 86.50463867 C-25.64612194 80.34296076 -23.7925974 74.01911824 -21.83129883 67.74975586 C-21.24457759 65.87742835 -20.65167152 64.00704248 -20.05859375 62.13671875 C-19.71111084 61.03030029 -19.36362793 59.92388184 -19.00561523 58.78393555 C-18 56 -18 56 -16 53 C-15.76965084 51.05848568 -15.54211471 49.11651508 -15.33984375 47.171875 C-14.89220687 44.31111519 -13.93393749 41.82233495 -12.84716797 39.14941406 C-9.54136592 30.76201312 -7.06414675 22.01744647 -4.3125 13.4375 C-3.89262379 12.12954263 -3.47270224 10.82159982 -3.05273438 9.51367188 C-2.03471186 6.34259025 -1.01714541 3.17136305 0 0 Z " fill="#030303" transform="translate(218,266)"/>
<path d="M0 0 C0.33 0.66 0.66 1.32 1 2 C2.05501709 2.02505615 3.11003418 2.0501123 4.19702148 2.07592773 C8.09770628 2.16984109 11.99820625 2.27010034 15.89868164 2.37231445 C17.58939299 2.41572439 19.28014991 2.45739489 20.97094727 2.49731445 C23.39613606 2.55487094 25.82109415 2.61860649 28.24609375 2.68359375 C29.38672523 2.70866249 29.38672523 2.70866249 30.55039978 2.73423767 C35.88612829 2.88612829 35.88612829 2.88612829 37 4 C37.09918212 6.18728924 37.12632398 8.37784613 37.12698364 10.56738281 C37.12854363 11.26173557 37.13010362 11.95608833 37.13171089 12.67148209 C37.13572311 15.01538418 37.1325304 17.35922234 37.12939453 19.703125 C37.13074847 21.37650592 37.13252837 23.04988655 37.13470459 24.7232666 C37.13927976 29.2809878 37.13748902 33.83868647 37.1343255 38.39640808 C37.13180233 43.15522322 37.13413932 47.91403636 37.13571167 52.67285156 C37.13753349 60.66601917 37.13512673 68.65917755 37.13037109 76.65234375 C37.12492845 85.90738286 37.1266911 95.16239994 37.1321975 104.41743851 C37.13672827 112.34862075 37.13737935 120.27979634 37.13475883 128.21097946 C37.13319586 132.95449942 37.13300284 137.69800902 37.13629532 142.44152832 C37.13917352 146.90000953 37.13719929 151.3584622 37.13140106 155.81694031 C37.13007319 157.45810397 37.13046804 159.09927001 37.13266373 160.74043274 C37.13537417 162.97119386 37.13199544 165.20186207 37.12698364 167.43261719 C37.12660662 168.68403503 37.12622959 169.93545288 37.12584114 171.22479248 C37 174 37 174 36 175 C34.64905018 175.09268999 33.29332909 175.11747326 31.93920898 175.11352539 C31.07839218 175.11344986 30.21757538 175.11337433 29.33067322 175.11329651 C28.39526199 175.10813522 27.45985077 175.10297394 26.49609375 175.09765625 C25.54307877 175.0962413 24.59006378 175.09482635 23.60816956 175.09336853 C20.55124835 175.08775152 17.49439923 175.07519616 14.4375 175.0625 C12.37044376 175.05748719 10.30338638 175.05292391 8.23632812 175.04882812 C3.15752412 175.03777656 -1.9212257 175.02050055 -7 175 C-7 171.7 -7 168.4 -7 165 C-6.67 165 -6.34 165 -6 165 C-6 167.97 -6 170.94 -6 174 C-5.34 173.67 -4.68 173.34 -4 173 C8.87 173 21.74 173 35 173 C35 117.56 35 62.12 35 5 C23.12 5 11.24 5 -1 5 C-0.67 3.35 -0.34 1.7 0 0 Z " fill="#3B3B3B" transform="translate(282,156)"/>
<path d="M0 0 C0.66 0 1.32 0 2 0 C1.38999115 5.82817843 0.63974345 11.59061615 -0.33984375 17.3671875 C-0.46686172 18.12742218 -0.5938797 18.88765686 -0.7247467 19.67092896 C-0.99170326 21.26600024 -1.25981755 22.86087816 -1.52905273 24.45556641 C-1.93528698 26.86189117 -2.33808336 29.26877106 -2.74023438 31.67578125 C-4.10036193 39.79505436 -5.49103853 47.90678398 -7 56 C-10.96 55.505 -10.96 55.505 -15 55 C-16.60937914 50.17186258 -15.11077565 47.46510233 -13 43 C-12.62691369 41.67723944 -12.26953585 40.34767923 -12 39 C-14.31 38.67 -16.62 38.34 -19 38 C-18.00969808 29.87952428 -14.25694628 23.45528125 -10.125 16.5625 C-9.70347656 15.85029297 -9.28195313 15.13808594 -8.84765625 14.40429688 C-7.57570478 12.26298408 -6.28818256 10.13157756 -5 8 C-4.32469238 6.85313721 -4.32469238 6.85313721 -3.63574219 5.68310547 C-2.97687012 4.58506592 -2.97687012 4.58506592 -2.3046875 3.46484375 C-1.91007324 2.79960693 -1.51545898 2.13437012 -1.10888672 1.44897461 C-0.7429541 0.97081299 -0.37702148 0.49265137 0 0 Z " fill="#0F0E0E" transform="translate(184,199)"/>
<path d="M0 0 C0.99 0.66 1.98 1.32 3 2 C3 2.99 3 3.98 3 5 C-8.88 5.33 -20.76 5.66 -33 6 C-33.33 62.1 -33.66 118.2 -34 176 C-45.22 176 -56.44 176 -68 176 C-68 175.67 -68 175.34 -68 175 C-57.11 175 -46.22 175 -35 175 C-35.00523682 169.85543213 -35.01047363 164.71086426 -35.01586914 159.41040039 C-35.03240006 142.4589588 -35.04352005 125.5075169 -35.05181217 108.55606937 C-35.05697561 98.27313388 -35.06401922 87.990206 -35.07543945 77.70727539 C-35.08538483 68.7480805 -35.09185308 59.78889113 -35.09408849 50.82969087 C-35.09539585 46.08279929 -35.09848327 41.33592348 -35.10573006 36.58903694 C-35.11248797 32.12646974 -35.11461743 27.66392491 -35.11310768 23.20135307 C-35.11338411 21.55857599 -35.11539059 19.91579819 -35.11920547 18.27302551 C-35.12413916 16.04002629 -35.12299951 13.80711291 -35.12025452 11.57411194 C-35.12117631 10.32139527 -35.1220981 9.06867861 -35.12304783 7.77800083 C-35 5 -35 5 -34 4 C-31.47905924 3.91152257 -28.98569107 3.88472699 -26.46484375 3.90234375 C-25.33496788 3.90446617 -25.33496788 3.90446617 -24.18226624 3.90663147 C-21.7673044 3.91224624 -19.35243399 3.92480117 -16.9375 3.9375 C-15.30403779 3.9425131 -13.67057414 3.94707634 -12.03710938 3.95117188 C-8.02470415 3.96222046 -4.01236759 3.97949494 0 4 C0 2.68 0 1.36 0 0 Z " fill="#DDDBDB" transform="translate(420,154)"/>
<path d="M0 0 C3 2 3 2 3.52416992 4.03686523 C3.59224854 4.86903564 3.66032715 5.70120605 3.73046875 6.55859375 C3.81119629 7.49372803 3.89192383 8.4288623 3.97509766 9.39233398 C4.04519043 10.39723877 4.1152832 11.40214355 4.1875 12.4375 C4.26790527 13.45980713 4.34831055 14.48211426 4.43115234 15.53540039 C5.12094388 25.02996177 5.19980725 34.48695466 5 44 C3.02 44 1.04 44 -1 44 C-1.17079577 29.31156385 -0.641084 14.67332163 0 0 Z " fill="#0A0A09" transform="translate(236,155)"/>
<path d="M0 0 C0.99 0.33 1.98 0.66 3 1 C-2.06032712 6.06032712 -9.70509028 6.58436876 -16.5 7.1875 C-17.73363281 7.3102832 -17.73363281 7.3102832 -18.9921875 7.43554688 C-20.99385775 7.63338638 -22.99681953 7.81808724 -25 8 C-24.67 11.96 -24.34 15.92 -24 20 C-33.625 18.25 -33.625 18.25 -37 16 C-37.1875 13.375 -37.1875 13.375 -37 11 C-41.455 11.495 -41.455 11.495 -46 12 C-46.33 14.97 -46.66 17.94 -47 21 C-47.33 21 -47.66 21 -48 21 C-48.02688151 19.35425434 -48.04634123 17.70838587 -48.0625 16.0625 C-48.07410156 15.14597656 -48.08570313 14.22945312 -48.09765625 13.28515625 C-48 11 -48 11 -47 10 C-44.98405418 9.76572222 -42.961526 9.58663876 -40.9375 9.4375 C-39.83277344 9.35371094 -38.72804687 9.26992187 -37.58984375 9.18359375 C-36.73519531 9.12300781 -35.88054687 9.06242188 -35 9 C-34.67 9.66 -34.34 10.32 -34 11 C-32.02 10.34 -30.04 9.68 -28 9 C-28.33 8.34 -28.66 7.68 -29 7 C-24.29538677 5.13867327 -20.1242304 4.7490504 -15.125 4.875 C-14.09246094 4.88853516 -14.09246094 4.88853516 -13.0390625 4.90234375 C-11.35922162 4.92567487 -9.67956254 4.96153674 -8 5 C-8 4.34 -8 3.68 -8 3 C-5.36 2.67 -2.72 2.34 0 2 C0 1.34 0 0.68 0 0 Z " fill="#FAF9FA" transform="translate(279,205)"/>
<path d="M0 0 C0.33 0 0.66 0 1 0 C1.0246501 5.10863896 1.04283607 10.21724359 1.05493164 15.32592773 C1.05997204 17.06519168 1.0668043 18.80445136 1.07543945 20.54370117 C1.08751792 23.03825937 1.09323108 25.53276173 1.09765625 28.02734375 C1.10281754 28.80963852 1.10797882 29.59193329 1.11329651 30.39793396 C1.11349226 32.26567114 1.06199694 34.13329204 1 36 C-0.94863925 37.94863925 -3.8980872 37.1291874 -6.49121094 37.13894653 C-7.40161133 37.1369223 -8.31201172 37.13489807 -9.25 37.1328125 C-10.17844727 37.13376923 -11.10689453 37.13472595 -12.06347656 37.13571167 C-14.03059965 37.13639355 -15.99772496 37.13453872 -17.96484375 37.13037109 C-20.98703026 37.12502295 -24.00906815 37.13031582 -27.03125 37.13671875 C-28.93750033 37.13605797 -30.84375057 37.13477681 -32.75 37.1328125 C-34.11560059 37.13584885 -34.11560059 37.13584885 -35.50878906 37.13894653 C-41.88505031 37.11494969 -41.88505031 37.11494969 -43 36 C-42.94921875 34.07421875 -42.94921875 34.07421875 -42.6875 31.6875 C-42.60886719 30.90761719 -42.53023437 30.12773437 -42.44921875 29.32421875 C-41.98413721 26.91792729 -41.19341444 25.12866168 -40 23 C-39 25 -39 25 -41 35 C-27.47 35 -13.94 35 0 35 C0 23.45 0 11.9 0 0 Z " fill="#5F5F5F" transform="translate(230,331)"/>
<path d="M0 0 C1.32 0 2.64 0 4 0 C4.66 1.65 5.32 3.3 6 5 C12.525434 6.00392976 12.525434 6.00392976 19 5 C18.67 7.64 18.34 10.28 18 13 C10.91296261 12.45484328 4.67203894 10.39081395 -2 8 C-2.20086443 4.28400809 -2.1519437 3.22791555 0 0 Z " fill="#2A292A" transform="translate(145,237)"/>
<path d="M0 0 C0.99 0.33 1.98 0.66 3 1 C-2.06032712 6.06032712 -9.70509028 6.58436876 -16.5 7.1875 C-17.73363281 7.3102832 -17.73363281 7.3102832 -18.9921875 7.43554688 C-20.99385775 7.63338638 -22.99681953 7.81808724 -25 8 C-24.67 11.96 -24.34 15.92 -24 20 C-25.98 19.67 -27.96 19.34 -30 19 C-28.68 18.67 -27.36 18.34 -26 18 C-26.11409593 16.54077307 -26.24165544 15.08259402 -26.375 13.625 C-26.44460937 12.81289062 -26.51421875 12.00078125 -26.5859375 11.1640625 C-26.82892588 8.79665809 -26.82892588 8.79665809 -29 7 C-24.29538677 5.13867327 -20.1242304 4.7490504 -15.125 4.875 C-14.09246094 4.88853516 -14.09246094 4.88853516 -13.0390625 4.90234375 C-11.35922162 4.92567487 -9.67956254 4.96153674 -8 5 C-8 4.34 -8 3.68 -8 3 C-5.36 2.67 -2.72 2.34 0 2 C0 1.34 0 0.68 0 0 Z " fill="#CBCDD0" transform="translate(279,205)"/>
<path d="M0 0 C1.485 0.99 1.485 0.99 3 2 C3.40843923 4.71203652 3.13336867 7.2437142 3 10 C2.67 10 2.34 10 2 10 C1.34 20.56 0.68 31.12 0 42 C1.65 42 3.3 42 5 42 C5 42.66 5 43.32 5 44 C3.02 44 1.04 44 -1 44 C-1.17079577 29.31156385 -0.641084 14.67332163 0 0 Z " fill="#474646" transform="translate(236,155)"/>
<path d="M0 0 C0 0.99 0 1.98 0 3 C-1.46102105 4.46102105 -2.92734221 5.91744404 -4.4296875 7.3359375 C-6.34789631 9.36866624 -7.49959264 11.65787569 -8.7890625 14.12109375 C-11.24206854 17.92720957 -14.70792072 20.92366378 -18 24 C-18.99 23.67 -19.98 23.34 -21 23 C-20.21496094 22.154375 -19.42992187 21.30875 -18.62109375 20.4375 C-13.4427347 14.84945543 -8.27572554 9.2630941 -3.3046875 3.48828125 C-2.24884029 2.28385674 -1.13257488 1.13257488 0 0 Z " fill="#B5B5B5" transform="translate(333,100)"/>
<path d="M0 0 C0 0.66 0 1.32 0 2 C-1.57716239 3.25033597 -3.21501322 4.42442042 -4.875 5.5625 C-11.80095871 10.47136249 -18.10188177 15.95743025 -24 22.0625 C-26 24 -26 24 -28 24 C-26.64383105 20.89826705 -25.21011148 19.04562103 -22.625 16.875 C-21.92117187 16.27945313 -21.21734375 15.68390625 -20.4921875 15.0703125 C-19.66976562 14.38710937 -18.84734375 13.70390625 -18 13 C-16.48792969 11.72769531 -16.48792969 11.72769531 -14.9453125 10.4296875 C-2.52143539 0 -2.52143539 0 0 0 Z " fill="#001200" transform="translate(125,75)"/>
<path d="M0 0 C0.99 0.66 1.98 1.32 3 2 C3 2.99 3 3.98 3 5 C-9.21 5.33 -21.42 5.66 -34 6 C-34 5.34 -34 4.68 -34 4 C-22.78 4 -11.56 4 0 4 C0 2.68 0 1.36 0 0 Z " fill="#C5C4C4" transform="translate(420,154)"/>
<path d="M0 0 C0 0.33 0 0.66 0 1 C-20.53191489 4.57446809 -20.53191489 4.57446809 -30 4 C-27.10873691 1.10873691 -24.77989721 1.65803518 -20.75 1.5 C-13.34066336 1.20714084 -7.33270681 -1.46654136 0 0 Z " fill="#001400" transform="translate(293,461)"/>
<path d="M0 0 C0 1.65 0 3.3 0 5 C0.66 5.33 1.32 5.66 2 6 C2.33 6.99 2.66 7.98 3 9 C0.525 8.01 0.525 8.01 -2 7 C-2 5.35 -2 3.7 -2 2 C-6.455 2.495 -6.455 2.495 -11 3 C-11.33 5.97 -11.66 8.94 -12 12 C-12.33 12 -12.66 12 -13 12 C-13.02688151 10.35425434 -13.04634123 8.70838587 -13.0625 7.0625 C-13.07410156 6.14597656 -13.08570313 5.22945312 -13.09765625 4.28515625 C-13 2 -13 2 -12 1 C-10.17205544 0.7657223 -8.33685296 0.58662595 -6.5 0.4375 C-4.99953125 0.31181641 -4.99953125 0.31181641 -3.46875 0.18359375 C-1 0 -1 0 0 0 Z " fill="#CACBCE" transform="translate(244,214)"/>
<path d="M0 0 C0.33 0.66 0.66 1.32 1 2 C-0.15016025 4.53807972 -1.35459472 6.93557544 -2.6875 9.375 C-3.04005859 10.04789062 -3.39261719 10.72078125 -3.75585938 11.4140625 C-5.77542835 15.16521804 -7.76021839 18.14782206 -11 21 C-10.43697042 17.05879291 -9.3208055 14.2491277 -7 11 C-6.34 11 -5.68 11 -5 11 C-4.8453125 10.195625 -4.8453125 10.195625 -4.6875 9.375 C-3.74123855 6.1060968 -2.44441464 2.44441464 0 0 Z " fill="#001200" transform="translate(442,345)"/>
<path d="M0 0 C1.32 0 2.64 0 4 0 C3.67 1.98 3.34 3.96 3 6 C1.1875 6.6875 1.1875 6.6875 -1 7 C-2.75 5.5625 -2.75 5.5625 -4 4 C-3.34 4 -2.68 4 -2 4 C-1.34 2.68 -0.68 1.36 0 0 Z " fill="#1A1819" transform="translate(160,242)"/>
<path d="M0 0 C0.33 0 0.66 0 1 0 C1.8931507 6.58183362 1.95494281 12.42150508 1 19 C0.34 19 -0.32 19 -1 19 C-1.0272616 16.95840905 -1.04651345 14.91671037 -1.0625 12.875 C-1.07410156 11.73804688 -1.08570313 10.60109375 -1.09765625 9.4296875 C-1.005327 6.1870844 -0.61389906 3.18067388 0 0 Z " fill="#001200" transform="translate(36,220)"/>
<path d="M0 0 C4.95 1.65 9.9 3.3 15 5 C15 5.33 15 5.66 15 6 C10.73660933 6.07105651 7.12056892 6.10938394 3 5 C2.01 5.495 2.01 5.495 1 6 C0.67 4.02 0.34 2.04 0 0 Z " fill="#D7D9DD" transform="translate(232,226)"/>
<path d="M0 0 C2.31 0 4.62 0 7 0 C6.56802365 4.7517398 5.67230705 6.92000054 2 10 C1.67 9.01 1.34 8.02 1 7 C1.66 6.67 2.32 6.34 3 6 C3.33 5.01 3.66 4.02 4 3 C3.34 3 2.68 3 2 3 C2 2.34 2 1.68 2 1 C1.34 0.67 0.68 0.34 0 0 Z " fill="#D4D7DB" transform="translate(287,191)"/>
<path d="M0 0 C0.99 0 1.98 0 3 0 C3 1.32 3 2.64 3 4 C6.96 4 10.92 4 15 4 C14.67 5.32 14.34 6.64 14 8 C14 7.01 14 6.02 14 5 C7.565 5.495 7.565 5.495 1 6 C0.67 4.02 0.34 2.04 0 0 Z " fill="#4C4D4E" transform="translate(280,186)"/>
<path d="M0 0 C0.33 0 0.66 0 1 0 C1.10541952 5.06672565 0.72702304 9.9318481 0 14.9375 C-0.09539062 15.62134766 -0.19078125 16.30519531 -0.2890625 17.00976562 C-0.52179137 18.67377707 -0.76028548 20.33698053 -1 22 C-1.33 22 -1.66 22 -2 22 C-3.29382821 13.94085318 -2.64122886 7.71477583 0 0 Z " fill="#C0C3C6" transform="translate(276,309)"/>
<path d="M0 0 C1.45606519 4.52092968 0.27032841 7.51648796 -1 12 C-0.34 12.33 0.32 12.66 1 13 C0.38125 13.433125 -0.2375 13.86625 -0.875 14.3125 C-3.2197245 15.99740483 -3.2197245 15.99740483 -5 19 C-4.39816529 13.34275371 -2.90692814 8.34768978 -1 3 C-0.67 2.01 -0.34 1.02 0 0 Z " fill="#B2B1B0" transform="translate(159,203)"/>
<path d="M0 0 C0.66 0 1.32 0 2 0 C1.67 2.97 1.34 5.94 1 9 C0.67 8.01 0.34 7.02 0 6 C-0.99 6.495 -0.99 6.495 -2 7 C-2.33 7.99 -2.66 8.98 -3 10 C-3.66 10 -4.32 10 -5 10 C-3.66749209 6.4124787 -2.169283 3.1635377 0 0 Z " fill="#4E4A4B" transform="translate(184,199)"/>
<path d="M0 0 C3.2826932 1.49076434 5.93077441 3.38620321 8.75 5.625 C9.94882812 6.57246094 9.94882812 6.57246094 11.171875 7.5390625 C11.77515625 8.02117187 12.3784375 8.50328125 13 9 C12.01 9.33 11.02 9.66 10 10 C9.34 9.34 8.68 8.68 8 8 C6.19616142 6.4669455 4.37874538 4.95113961 2.55859375 3.4375 C1 2 1 2 0 0 Z " fill="#001500" transform="translate(375,75)"/>
<path d="M0 0 C0 0.33 0 0.66 0 1 C-0.93972656 1.09087891 -0.93972656 1.09087891 -1.8984375 1.18359375 C-2.71570313 1.26738281 -3.53296875 1.35117187 -4.375 1.4375 C-5.18710938 1.51871094 -5.99921875 1.59992187 -6.8359375 1.68359375 C-9.04272805 1.89090114 -9.04272805 1.89090114 -11 3 C-13.3400417 2.71758117 -15.67504723 2.38749213 -18 2 C-18 1.67 -18 1.34 -18 1 C-12.03325384 -0.32594359 -6.07416385 -0.0884587 0 0 Z " fill="#001600" transform="translate(237,35)"/>
<path d="M0 0 C2.64 0 5.28 0 8 0 C8 0.66 8 1.32 8 2 C8.66 2 9.32 2 10 2 C9.67 3.32 9.34 4.64 9 6 C8.7215625 5.0409375 8.7215625 5.0409375 8.4375 4.0625 C7.05753944 1.57873787 7.05753944 1.57873787 3.375 1.25 C2.26125 1.1675 1.1475 1.085 0 1 C0 0.67 0 0.34 0 0 Z " fill="#E5EAF0" transform="translate(281,192)"/>
<path d="M0 0 C0.20625 0.61875 0.4125 1.2375 0.625 1.875 C2.54775888 4.84653645 4.66594527 5.13024659 8 6 C8 6.33 8 6.66 8 7 C5.36 6.67 2.72 6.34 0 6 C-0.38218767 4.34385343 -0.71395102 2.67542976 -1 1 C-0.67 0.67 -0.34 0.34 0 0 Z " fill="#656565" transform="translate(169,248)"/>
<path d="M0 0 C0.33 0.99 0.66 1.98 1 3 C-1.97 5.475 -1.97 5.475 -5 8 C-5.66 7.67 -6.32 7.34 -7 7 C-4.69 4.69 -2.38 2.38 0 0 Z " fill="#B2B2B2" transform="translate(306,130)"/>
<path d="M0 0 C0.33 0 0.66 0 1 0 C0.88652381 1.97986082 0.7589065 3.95891598 0.625 5.9375 C0.52058594 7.59072266 0.52058594 7.59072266 0.4140625 9.27734375 C0.27742188 10.17582031 0.14078125 11.07429688 0 12 C-0.99 12.495 -0.99 12.495 -2 13 C-2.05416188 11.39620659 -2.09286638 9.79188594 -2.125 8.1875 C-2.14820313 7.29417969 -2.17140625 6.40085937 -2.1953125 5.48046875 C-2 3 -2 3 0 0 Z " fill="#E1E6EA" transform="translate(277,297)"/>
<path d="M0 0 C3.85233752 3.2739705 3.60102096 6.13245571 4 11 C1.6870518 8.6870518 1.50419025 7.52095125 0.875 4.375 C0.70742188 3.55773437 0.53984375 2.74046875 0.3671875 1.8984375 C0.24601562 1.27195312 0.12484375 0.64546875 0 0 Z " fill="#001400" transform="translate(44,313)"/>
<path d="M0 0 C0 0.99 0 1.98 0 3 C-2.5 5.1875 -2.5 5.1875 -5 7 C-5.66 6.67 -6.32 6.34 -7 6 C-4.69 4.02 -2.38 2.04 0 0 Z " fill="#D7D7D7" transform="translate(302,136)"/>
</svg>
